<?xml version="1.0" encoding="utf-8"?>
<!-- Generator: Adobe Illustrator 25.0.0, SVG Export Plug-In . SVG Version: 6.00 Build 0)  -->
<svg version="1.1" id="Layer_1" xmlns="http://www.w3.org/2000/svg" xmlns:xlink="http://www.w3.org/1999/xlink" x="0px" y="0px"
	 viewBox="0 0 481.33 476.92" width="100px" style="enable-background:new 0 0 481.33 476.92;" xml:space="preserve">
<style type="text/css">
	.st0{fill:#252733;}
	.st1{fill:#E5DECA;}
	.st2{fill:#E5C04C;}
</style>
<g>
	<g>
		<path class="st0" d="M263.43,33.05L263.43,33.05c20.91-13.41,48.82-5.93,60.23,16.14l0,0c7.57,14.64,22.97,23.53,39.43,22.76h0
			c24.81-1.15,45.25,19.28,44.09,44.09v0c-0.77,16.46,8.12,31.86,22.76,39.43l0,0c22.07,11.41,29.55,39.32,16.14,60.23l0,0
			c-8.89,13.87-8.89,31.65,0,45.53l0,0c13.41,20.91,5.93,48.82-16.14,60.23l0,0c-14.64,7.57-23.53,22.97-22.76,39.43v0
			c1.15,24.81-19.28,45.25-44.09,44.09h0c-16.46-0.77-31.86,8.12-39.43,22.76l0,0c-11.41,22.07-39.32,29.55-60.23,16.14l0,0
			c-13.87-8.89-31.65-8.89-45.53,0l0,0c-20.91,13.41-48.82,5.93-60.23-16.14l0,0c-7.57-14.64-22.97-23.53-39.43-22.76h0
			C93.43,406.13,73,385.7,74.15,360.88v0c0.77-16.46-8.13-31.86-22.76-39.43l0,0c-22.07-11.41-29.55-39.32-16.14-60.23l0,0
			c8.89-13.87,8.89-31.65,0-45.53l0,0c-13.41-20.91-5.93-48.82,16.14-60.23l0,0c14.64-7.57,23.53-22.97,22.76-39.43v0
			C73,91.23,93.43,70.79,118.25,71.95h0c16.46,0.77,31.86-8.13,39.43-22.76l0,0c11.41-22.07,39.32-29.55,60.23-16.14l0,0
			C231.78,41.94,249.56,41.94,263.43,33.05z"/>
	</g>
	<g>
		<g>
			<path class="st1" d="M236.41,222.53c0,10.65-8.21,20.4-26.18,20.4c-8.85,0-17.96-2.44-24.1-6.77l5.69-11.19
				c4.78,3.61,11.46,5.69,18.05,5.69c7.31,0,11.83-2.98,11.83-8.12c0-4.78-3.52-7.76-11.83-7.76h-6.68v-9.66l13-14.71h-26.9v-11.73
				h44.23v9.48l-14.26,16.25C230.63,206.19,236.41,213.23,236.41,222.53z"/>
			<path class="st1" d="M243.18,210.26c0-20.85,11.55-32.68,27.08-32.68c15.62,0,27.08,11.83,27.08,32.68s-11.46,32.68-27.08,32.68
				C254.73,242.93,243.18,231.11,243.18,210.26z M282.63,210.26c0-14.35-5.05-20.31-12.37-20.31c-7.22,0-12.28,5.96-12.28,20.31
				s5.05,20.31,12.28,20.31C277.57,230.57,282.63,224.61,282.63,210.26z"/>
		</g>
		<g>
			<path class="st1" d="M186.27,258.1h16.42c11.82,0,19.93,7.12,19.93,18.07s-8.1,18.07-19.93,18.07h-16.42V258.1z M202.27,287.37
				c7.18,0,11.87-4.29,11.87-11.2s-4.7-11.2-11.87-11.2h-7.64v22.4H202.27z"/>
			<path class="st1" d="M252.19,286.49h-16.78l-3.2,7.74h-8.57l16.11-36.13H248l16.16,36.13h-8.78L252.19,286.49z M249.55,280.14
				l-5.73-13.83l-5.73,13.83H249.55z"/>
			<path class="st1" d="M283.05,281.43v12.8h-8.36v-12.91L260.7,258.1h8.88l9.65,16.05l9.65-16.05h8.21L283.05,281.43z"/>
		</g>
	</g>
	<g>
		<path class="st2" d="M141.76,178.19l-15.85-7.75l9.22,14.18l-1.35,2.75l-16.5,1.48l15.49,7.62l-2.82,5.73l-26.38-12.98l2.48-5.05
			l21.25-1.81l-11.61-17.79l2.47-5.01l26.42,12.91L141.76,178.19z"/>
		<path class="st2" d="M136.5,158.9c-6.24-6.12-6.1-15.5,0.4-22.13c6.47-6.6,15.85-6.99,22.12-0.85c6.27,6.14,6.07,15.53-0.4,22.13
			C152.12,164.69,142.74,165.02,136.5,158.9z M154.2,140.84c-3.99-3.91-9.48-3.77-13.16-0.02c-3.68,3.75-3.71,9.25,0.28,13.16
			c3.99,3.91,9.48,3.77,13.16,0.02C158.15,150.25,158.19,144.75,154.2,140.84z"/>
		<path class="st2" d="M182.67,105.09l14.2,25.75l-4.89,2.7l-21.46-8.55l8.62,15.63l-5.89,3.25l-14.2-25.75l4.93-2.72l21.42,8.57
			l-8.62-15.63L182.67,105.09z"/>
		<path class="st2" d="M223.92,118.11l1.29,5.3l-22.11,5.39l-6.96-28.56l21.58-5.26l1.29,5.3L204,103.95l1.51,6.2l13.26-3.23
			l1.25,5.14l-13.26,3.23l1.61,6.61L223.92,118.11z"/>
		<path class="st2" d="M244.37,112.65l-0.04,10.42l-6.8-0.03l0.04-10.5l-11.3-18.95l7.22,0.03l7.8,13.1l7.91-13.03l6.68,0.03
			L244.37,112.65z"/>
		<path class="st2" d="M299.6,129.08c-1.88,4.72-6.71,5.97-13.89,3.12l-14.13-5.61l10.85-27.33l13.35,5.3
			c6.83,2.71,9.21,6.96,7.52,11.21c-1.08,2.73-3.33,4.28-6.02,4.57C299.94,122.53,300.97,125.65,299.6,129.08z M293.5,125.89
			c0.91-2.3-0.41-4.09-3.69-5.4l-7.38-2.93l-2.68,6.75l7.38,2.93C290.41,128.55,292.57,128.23,293.5,125.89z M286.82,106.52
			l-2.56,6.44l6.29,2.5c3.08,1.22,5.2,0.8,6.05-1.35c0.85-2.15-0.41-3.87-3.49-5.09L286.82,106.52z"/>
		<path class="st2" d="M319.75,145.8l-10.84-8.3l-5.9,3.42l-5.54-4.24l28.28-15.39l5.34,4.08l-7.42,31.34l-5.67-4.34L319.75,145.8z
			 M321.19,140.39l3.14-11.77l-10.54,6.11L321.19,140.39z"/>
		<path class="st2" d="M335.39,148.38c7.04-5.38,16.21-3.83,21.77,3.44c3.09,4.04,4.2,8.53,3.21,12.77l-5.86-1.02
			c0.6-2.95,0.03-5.63-1.75-7.96c-3.34-4.37-8.79-5.13-13.19-1.76c-4.4,3.37-5.1,8.82-1.76,13.19c1.79,2.33,4.23,3.59,7.26,3.75
			l-0.55,5.92c-4.39-0.14-8.43-2.38-11.54-6.45C327.45,163.02,328.35,153.76,335.39,148.38z"/>
		<path class="st2" d="M357.37,188.9l-5.31-2.08l-6.88,2.83l-2.57-6.25l27.19-11.19l2.57,6.25l-12.7,5.23l17.66,6.81l2.88,6.99
			l-16.75-6.28l-10.16,18.12l-3.02-7.34L357.37,188.9z"/>
	</g>
	<g>
		<path class="st2" d="M130.53,305.98l2.98,5.45l-10.48,5.69c-3.69-1.67-6.97-4.96-8.98-8.65c-4.43-8.11-2.12-17.11,5.67-21.33
			c7.79-4.23,16.62-1.28,21.11,6.94c2.48,4.53,2.98,9.13,1.43,13.22l-5.64-1.91c0.97-2.96,0.7-5.64-0.73-8.25
			c-2.74-5.01-7.97-6.62-12.88-3.95c-4.83,2.63-6.4,7.92-3.7,12.86c0.89,1.62,2.01,2.97,3.64,4.04L130.53,305.98z"/>
		<path class="st2" d="M138.02,321.29l11.69-11.6l4.79,4.83l-11.51,11.42c-3.96,3.93-3.89,7.29-0.99,10.21
			c2.93,2.95,6.25,3.02,10.22-0.91l11.51-11.42l4.73,4.77l-11.69,11.6c-6.14,6.09-13.03,5.95-18.91,0.01
			C131.97,334.28,131.88,327.39,138.02,321.29z"/>
		<path class="st2" d="M179.16,361.95l-11.91-6.67l-5.35,4.22l-6.08-3.4l25.81-19.25l5.86,3.28l-2.9,32.07l-6.23-3.49L179.16,361.95
			z M179.81,356.39l1.43-12.1l-9.57,7.54L179.81,356.39z"/>
		<path class="st2" d="M213.69,380.18l-3.6-9.29l-0.33-0.08l-5.76-1.39l-1.92,7.96l-6.61-1.59l6.87-28.58l12.37,2.98
			c7.63,1.84,11.46,6.95,9.92,13.36c-1.03,4.29-3.95,6.91-8.05,7.61l4.2,10.73L213.69,380.18z M213.06,355.49l-5.39-1.3l-2.4,9.96
			l5.39,1.3c4.04,0.97,6.54-0.41,7.28-3.52C218.7,358.8,217.1,356.47,213.06,355.49z"/>
		<path class="st2" d="M253.04,375.97l-13.64,0.52l-2.36,6.4l-6.97,0.27l11.96-29.88l6.72-0.26l14.27,28.88l-7.13,0.27
			L253.04,375.97z M250.7,370.88l-5.09-11.07l-4.22,11.43L250.7,370.88z"/>
		<path class="st2" d="M290.54,342.86l9.39,27.86l-5.29,1.79l-19.59-12.21l5.7,16.91l-6.37,2.16l-9.39-27.86l5.33-1.81l19.55,12.23
			l-5.7-16.91L290.54,342.86z"/>
		<path class="st2" d="M305.12,340.34l-7.83,5.21l-3.08-4.61l21.33-14.19l3.08,4.61l-7.83,5.21l13.23,19.85l-5.67,3.77
			L305.12,340.34z"/>
		<path class="st2" d="M351.77,323.09l4.02,3.69l-15.38,16.78l-21.67-19.87l15.02-16.37l4.02,3.69l-10.45,11.39l4.71,4.31
			l9.22-10.06l3.9,3.58l-9.23,10.06l5.01,4.6L351.77,323.09z"/>
		<path class="st2" d="M369.31,293.13l4.81,2.59l-10.76,20.07l-25.89-13.92l10.5-19.58l4.81,2.59l-7.31,13.62l5.62,3.02l6.45-12.03
			l4.66,2.51l-6.45,12.03l5.99,3.22L369.31,293.13z"/>
	</g>
	<g>
		<path class="st1" d="M116.81,278.08c-4.08-12.76-6.15-26.09-6.15-39.62c0-9.07,0.94-18.12,2.79-26.91l3.91,0.82
			c-1.79,8.52-2.7,17.3-2.7,26.09c0,13.11,2,26.03,5.96,38.4L116.81,278.08z"/>
	</g>
	<g>
		<path class="st1" d="M364.52,278.08l-3.81-1.22c3.95-12.37,5.96-25.29,5.96-38.4c0-8.79-0.91-17.57-2.7-26.09l3.91-0.82
			c1.85,8.79,2.79,17.85,2.79,26.91C370.67,251.99,368.6,265.31,364.52,278.08z"/>
	</g>
</g>
</svg>
